<svg id="visual" viewBox="0 0 900 900" width="900" height="900" xmlns="http://www.w3.org/2000/svg" xmlns:xlink="http://www.w3.org/1999/xlink" version="1.1"><g stroke-width="1" stroke-linejoin="bevel"><path d="M391.7 403.7L275.1 405.7L366.7 506.3Z" fill="#1e615d" stroke="#1e615d"></path><path d="M275.1 405.7L246.1 503.3L366.7 506.3Z" fill="#1e524f" stroke="#1e524f"></path><path d="M246.1 503.3L364.7 617.9L366.7 506.3Z" fill="#1e615d" stroke="#1e615d"></path><path d="M541.3 500.3L522.3 374.7L391.7 403.7Z" fill="#11908b" stroke="#11908b"></path><path d="M391.7 403.7L383.7 270.1L275.1 405.7Z" fill="#1b3634" stroke="#1b3634"></path><path d="M275.1 405.7L154.6 519.3L246.1 503.3Z" fill="#00a09b" stroke="#00a09b"></path><path d="M246.1 503.3L253.1 636.9L364.7 617.9Z" fill="#1d4441" stroke="#1d4441"></path><path d="M113.6 368.7L154.6 519.3L275.1 405.7Z" fill="#19807b" stroke="#19807b"></path><path d="M541.3 500.3L391.7 403.7L366.7 506.3Z" fill="#182827" stroke="#182827"></path><path d="M391.7 403.7L522.3 374.7L383.7 270.1Z" fill="#1d4441" stroke="#1d4441"></path><path d="M154.6 519.3L253.1 636.9L246.1 503.3Z" fill="#1e524f" stroke="#1e524f"></path><path d="M383.7 270.1L236.1 258.1L275.1 405.7Z" fill="#11908b" stroke="#11908b"></path><path d="M364.7 617.9L541.3 500.3L366.7 506.3Z" fill="#0d0d0d" stroke="#0d0d0d"></path><path d="M236.1 258.1L113.6 368.7L275.1 405.7Z" fill="#1d4441" stroke="#1d4441"></path><path d="M522.3 374.7L505.3 252.1L383.7 270.1Z" fill="#182827" stroke="#182827"></path><path d="M383.7 270.1L266.1 156.6L236.1 258.1Z" fill="#1e524f" stroke="#1e524f"></path><path d="M623.9 246.1L505.3 252.1L522.3 374.7Z" fill="#1c706c" stroke="#1c706c"></path><path d="M266.1 156.6L139.6 243.1L236.1 258.1Z" fill="#19807b" stroke="#19807b"></path><path d="M236.1 258.1L139.6 243.1L113.6 368.7Z" fill="#1e524f" stroke="#1e524f"></path><path d="M541.3 500.3L612.9 398.7L522.3 374.7Z" fill="#182827" stroke="#182827"></path><path d="M410.7 769.4L522.3 661.9L364.7 617.9Z" fill="#182827" stroke="#182827"></path><path d="M364.7 617.9L522.3 661.9L541.3 500.3Z" fill="#1c706c" stroke="#1c706c"></path><path d="M541.3 500.3L657.9 488.3L612.9 398.7Z" fill="#11908b" stroke="#11908b"></path><path d="M402.7 128.6L266.1 156.6L383.7 270.1Z" fill="#19807b" stroke="#19807b"></path><path d="M154.6 519.3L124.6 661.9L253.1 636.9Z" fill="#1c706c" stroke="#1c706c"></path><path d="M253.1 636.9L276.1 765.4L364.7 617.9Z" fill="#1c706c" stroke="#1c706c"></path><path d="M0 618.9L124.6 661.9L154.6 519.3Z" fill="#1d4441" stroke="#1d4441"></path><path d="M505.3 252.1L402.7 128.6L383.7 270.1Z" fill="#0d0d0d" stroke="#0d0d0d"></path><path d="M124.6 661.9L276.1 765.4L253.1 636.9Z" fill="#0d0d0d" stroke="#0d0d0d"></path><path d="M620.9 669.9L657.9 488.3L541.3 500.3Z" fill="#1d4441" stroke="#1d4441"></path><path d="M276.1 765.4L410.7 769.4L364.7 617.9Z" fill="#19807b" stroke="#19807b"></path><path d="M0 364.7L0 500.3L113.6 368.7Z" fill="#0d0d0d" stroke="#0d0d0d"></path><path d="M113.6 368.7L0 500.3L154.6 519.3Z" fill="#1e524f" stroke="#1e524f"></path><path d="M0 229.1L0 364.7L113.6 368.7Z" fill="#182827" stroke="#182827"></path><path d="M750.4 372.7L623.9 246.1L612.9 398.7Z" fill="#00a09b" stroke="#00a09b"></path><path d="M612.9 398.7L623.9 246.1L522.3 374.7Z" fill="#1b3634" stroke="#1b3634"></path><path d="M505.3 252.1L541.3 139.6L402.7 128.6Z" fill="#141b1b" stroke="#141b1b"></path><path d="M410.7 769.4L489.3 771.4L522.3 661.9Z" fill="#19807b" stroke="#19807b"></path><path d="M522.3 661.9L620.9 669.9L541.3 500.3Z" fill="#0d0d0d" stroke="#0d0d0d"></path><path d="M489.3 771.4L620.9 669.9L522.3 661.9Z" fill="#0d0d0d" stroke="#0d0d0d"></path><path d="M623.9 246.1L541.3 139.6L505.3 252.1Z" fill="#141b1b" stroke="#141b1b"></path><path d="M0 500.3L0 618.9L154.6 519.3Z" fill="#1b3634" stroke="#1b3634"></path><path d="M124.6 661.9L102.6 752.4L276.1 765.4Z" fill="#182827" stroke="#182827"></path><path d="M0 742.4L102.6 752.4L124.6 661.9Z" fill="#0d0d0d" stroke="#0d0d0d"></path><path d="M266.1 156.6L138.6 100.6L139.6 243.1Z" fill="#1b3634" stroke="#1b3634"></path><path d="M139.6 243.1L0 229.1L113.6 368.7Z" fill="#1c706c" stroke="#1c706c"></path><path d="M286.1 0L138.6 100.6L266.1 156.6Z" fill="#1e615d" stroke="#1e615d"></path><path d="M286.1 0L266.1 156.6L402.7 128.6Z" fill="#0d0d0d" stroke="#0d0d0d"></path><path d="M0 121.6L0 229.1L139.6 243.1Z" fill="#0d0d0d" stroke="#0d0d0d"></path><path d="M657.9 488.3L750.4 372.7L612.9 398.7Z" fill="#19807b" stroke="#19807b"></path><path d="M623.9 246.1L666.9 145.6L541.3 139.6Z" fill="#1e615d" stroke="#1e615d"></path><path d="M766.4 514.3L750.4 372.7L657.9 488.3Z" fill="#0d0d0d" stroke="#0d0d0d"></path><path d="M760.4 625.9L766.4 514.3L657.9 488.3Z" fill="#1d4441" stroke="#1d4441"></path><path d="M408.7 0L286.1 0L402.7 128.6Z" fill="#0d0d0d" stroke="#0d0d0d"></path><path d="M489.3 771.4L660.9 748.4L620.9 669.9Z" fill="#19807b" stroke="#19807b"></path><path d="M620.9 669.9L760.4 625.9L657.9 488.3Z" fill="#00a09b" stroke="#00a09b"></path><path d="M757.4 272.1L666.9 145.6L623.9 246.1Z" fill="#1d4441" stroke="#1d4441"></path><path d="M536.3 0L408.7 0L402.7 128.6Z" fill="#1d4441" stroke="#1d4441"></path><path d="M0 618.9L0 742.4L124.6 661.9Z" fill="#1c706c" stroke="#1c706c"></path><path d="M536.3 0L402.7 128.6L541.3 139.6Z" fill="#1e615d" stroke="#1e615d"></path><path d="M750.4 372.7L757.4 272.1L623.9 246.1Z" fill="#00a09b" stroke="#00a09b"></path><path d="M900 377.7L757.4 272.1L750.4 372.7Z" fill="#182827" stroke="#182827"></path><path d="M410.7 769.4L395.7 900L489.3 771.4Z" fill="#141b1b" stroke="#141b1b"></path><path d="M489.3 771.4L637.9 900L660.9 748.4Z" fill="#11908b" stroke="#11908b"></path><path d="M276.1 765.4L395.7 900L410.7 769.4Z" fill="#00a09b" stroke="#00a09b"></path><path d="M235.1 900L395.7 900L276.1 765.4Z" fill="#1b3634" stroke="#1b3634"></path><path d="M235.1 900L276.1 765.4L102.6 752.4Z" fill="#11908b" stroke="#11908b"></path><path d="M660.9 748.4L760.4 625.9L620.9 669.9Z" fill="#1c706c" stroke="#1c706c"></path><path d="M138.6 100.6L0 121.6L139.6 243.1Z" fill="#1b3634" stroke="#1b3634"></path><path d="M101.6 0L0 121.6L138.6 100.6Z" fill="#182827" stroke="#182827"></path><path d="M104.6 900L235.1 900L102.6 752.4Z" fill="#1c706c" stroke="#1c706c"></path><path d="M615.9 0L536.3 0L541.3 139.6Z" fill="#1e524f" stroke="#1e524f"></path><path d="M395.7 900L514.3 900L489.3 771.4Z" fill="#19807b" stroke="#19807b"></path><path d="M286.1 0L101.6 0L138.6 100.6Z" fill="#00a09b" stroke="#00a09b"></path><path d="M0 900L104.6 900L102.6 752.4Z" fill="#141b1b" stroke="#141b1b"></path><path d="M757.4 272.1L768.4 157.6L666.9 145.6Z" fill="#1e615d" stroke="#1e615d"></path><path d="M666.9 145.6L615.9 0L541.3 139.6Z" fill="#11908b" stroke="#11908b"></path><path d="M900 244.1L768.4 157.6L757.4 272.1Z" fill="#1b3634" stroke="#1b3634"></path><path d="M761.4 900L752.4 755.4L660.9 748.4Z" fill="#1d4441" stroke="#1d4441"></path><path d="M660.9 748.4L752.4 755.4L760.4 625.9Z" fill="#0d0d0d" stroke="#0d0d0d"></path><path d="M760.4 0L615.9 0L666.9 145.6Z" fill="#00a09b" stroke="#00a09b"></path><path d="M514.3 900L637.9 900L489.3 771.4Z" fill="#0d0d0d" stroke="#0d0d0d"></path><path d="M101.6 0L0 0L0 121.6Z" fill="#00a09b" stroke="#00a09b"></path><path d="M0 742.4L0 900L102.6 752.4Z" fill="#0d0d0d" stroke="#0d0d0d"></path><path d="M766.4 514.3L900 377.7L750.4 372.7Z" fill="#1c706c" stroke="#1c706c"></path><path d="M900 537.3L900 377.7L766.4 514.3Z" fill="#11908b" stroke="#11908b"></path><path d="M900 537.3L766.4 514.3L760.4 625.9Z" fill="#1b3634" stroke="#1b3634"></path><path d="M900 620.9L900 537.3L760.4 625.9Z" fill="#1e524f" stroke="#1e524f"></path><path d="M900 745.4L760.4 625.9L752.4 755.4Z" fill="#1e524f" stroke="#1e524f"></path><path d="M900 745.4L900 620.9L760.4 625.9Z" fill="#11908b" stroke="#11908b"></path><path d="M900 377.7L900 244.1L757.4 272.1Z" fill="#0d0d0d" stroke="#0d0d0d"></path><path d="M768.4 157.6L760.4 0L666.9 145.6Z" fill="#1e524f" stroke="#1e524f"></path><path d="M900 134.6L760.4 0L768.4 157.6Z" fill="#182827" stroke="#182827"></path><path d="M637.9 900L761.4 900L660.9 748.4Z" fill="#1d4441" stroke="#1d4441"></path><path d="M900 900L900 745.4L752.4 755.4Z" fill="#141b1b" stroke="#141b1b"></path><path d="M900 244.1L900 134.6L768.4 157.6Z" fill="#1b3634" stroke="#1b3634"></path><path d="M900 134.6L900 0L760.4 0Z" fill="#00a09b" stroke="#00a09b"></path><path d="M761.4 900L900 900L752.4 755.4Z" fill="#1e615d" stroke="#1e615d"></path></g></svg>